# AST/ASF file generated using VICON BodyLanguage
# -----------------------------------------------
:version 1.10
:name VICON
:units
  mass 1.0
  length 0.45
  angle deg
:documentation
   .ast/.asf automatically generated from VICON data using
   VICON BodyBuilder and BodyLanguage model FoxedUp or BRILLIANT.MOD
:root
   order TX TY TZ RX RY RZ
   axis XYZ
   position 0 0 0  
   orientation 0 0 0 
:bonedata
  begin
     id 1 
     name lhipjoint
     direction 0.722297 -0.617336 0.311742 
     length 2.6635 
     axis 0 0 0  XYZ
  end
  begin
     id 2 
     name lfemur
     direction 0.34202 -0.939693 0  
     length 7.39349  
     axis 0 0 20  XYZ
    dof rx ry rz
    limits (-160.0 20.0)
           (-70.0 70.0)
           (-60.0 70.0)
  end
  begin
     id 3 
     name ltibia
     direction 0.34202 -0.939693 0   
     length 7.36294   
     axis 0 0 20   XYZ
    dof rx
    limits (-10.0 170.0)
  end
  begin
     id 4 
     name lfoot
     direction 0.104879 -0.288152 0.951824   
     length 2.16981   
     axis -90 7.62852e-016 20   XYZ
    dof rx rz
    limits (-45.0 90.0)
           (-70.0 20.0)
  end
  begin
     id 5 
     name ltoes
     direction 1.53586e-011 -4.21895e-011 1   
     length 1.08218   
     axis -90 7.62852e-016 20   XYZ
    dof rx
    limits (-90.0 20.0)
  end
  begin
     id 6 
     name rhipjoint
     direction -0.75102 -0.589393 0.297631   
     length 2.78977  
     axis 0 0 0  XYZ 
  end
  begin
     id 7 
     name rfemur
     direction -0.34202 -0.939693 0   
     length 7.46076   
     axis 0 0 -20   XYZ
    dof rx ry rz
    limits (-160.0 20.0)
           (-70.0 70.0)
           (-70.0 60.0)
  end
  begin
     id 8 
     name rtibia
     direction -0.34202 -0.939693 0   
     length 7.31726   
     axis 0 0 -20   XYZ
    dof rx
    limits (-10.0 170.0)
 end
 begin
     id 9 
     name rfoot
     direction -0.107991 -0.296704 0.948844   
     length 2.09388  
     axis -90 -7.62852e-016 -20   XYZ
    dof rx rz
    limits (-45.0 90.0)
           (-20.0 70.0)
  end
  begin
     id 10 
     name rtoes
     direction -1.53559e-011 -4.21911e-011 1   
     length 1.04433   
     axis -90 -7.62852e-016 -20   XYZ
    dof rx
    limits (-90.0 20.0)
  end
  begin
     id 11 
     name lowerback
     direction 0.0165164 0.98272 0.184358   
     length 1.71896   
     axis 0 0 0   XYZ
    dof rx ry rz
    limits (-20.0 45.0)
           (-30.0 30.0)
           (-30.0 30.0)
  end
  begin
     id 12 
     name upperback
     direction -0.00887249 0.992297 0.123566   
     length 1.71504   
     axis 0 0 0   XYZ
    dof rx ry rz
    limits (-20.0 45.0)
           (-30.0 30.0)
           (-30.0 30.0)
  end
  begin
     id 13 
     name thorax
     direction -0.0157026 0.998908 0.0440032   
     length 1.77022   
     axis 0 0 0   XYZ
    dof rx ry rz
    limits (-20.0 45.0)
           (-30.0 30.0)
           (-30.0 30.0)
  end
  begin
     id 14 
     name lowerneck
     direction -0.0238856 0.998137 0.0561411   
     length 1.89341   
     axis 0 0 0   XYZ
    dof rx ry rz
    limits (-20.0 45.0)
           (-30.0 30.0)
           (-30.0 30.0)
  end
  begin
     id 15 
     name upperneck
     direction 0.0276574 0.952253 -0.304056   
     length 1.86999   
     axis 0 0 0   XYZ
    dof rx ry rz
    limits (-20.0 45.0)
           (-30.0 30.0)
           (-30.0 30.0)
  end
  begin
     id 16
     name head
     direction 0.00800083 0.994258 -0.106712  
     length 1.91492  
     axis 0 0 0   XYZ
    dof rx ry rz
    limits (-20.0 45.0)
           (-30.0 30.0)
           (-30.0 30.0)
  end
  begin
     id 17 
     name lclavicle
     direction 0.97203 0.225407 0.06595  
     length 3.34889  
     axis 0 0 0   XYZ
    dof ry rz
    limits (-20.0 10.0)
           (0.0 20.0)
  end
  begin
     id 18 
     name lhumerus
     direction 1 -4.48973e-011 2.20267e-027   
     length 4.85645   
     axis 180 -30 -90   XYZ
    dof rx ry rz
    limits (-60.0 90.0)
           (-90.0 90.0)
           (-90.0 90.0)
  end
  begin
     id 19
     name lradius
     direction 1 -4.4897e-011 4.60472e-027   
     length 2.79874   
     axis 180 -30 -90   XYZ
    dof rx
    limits (-10.0 170.0)
  end
  begin
     id 20
     name lwrist
     direction 1 -4.48952e-011 1.14928e-026   
     length 1.39937   
     axis -6.29373e-015 90 90   XYZ
    dof ry
    limits (-180.0 0.0)
 end
  begin
     id 21 
     name lhand
     direction 1 -4.48967e-011 2.29886e-026   
     length 0.573398   
     axis -1.46689e-014 90 90   XYZ
    dof rx rz
    limits (-90.0 90.0)
           (-45.0 45.0)
  end
  begin
     id 22 
     name lfingers
     direction 1 -4.48955e-011 4.59726e-026   
     length 0.462289   
     axis -2.93383e-014 90 90   XYZ
    dof rx
    limits (0.0 90.0)
  end
  begin
     id 23
     name lthumb
     direction 0.707107 -6.34866e-011 0.707107   
     length 0.663757   
     axis -90 45 5.69224e-014   XYZ
    dof rx rz
    limits (-45.0 45.0)
           (-45.0 45.0)
  end
  begin
     id 24 
     name rclavicle
     direction -0.981571 0.157346 0.108443   
     length 3.35257  
     axis 0 0 0   XYZ 
    dof ry rz
    limits (-10.0 20.0)
           (-20.0 0.0)
  end
  begin
     id 25 
     name rhumerus
     direction -1 -4.48967e-011 8.58308e-029  
     length 4.67018   
     axis 180 30 90   XYZ
    dof rx ry rz
    limits (-90.0 60.0)
           (-90.0 90.0)
           (-90.0 90.0)
  end
  begin
     id 26 
     name rradius
     direction -1 -4.48958e-011 4.52548e-027   
     length 2.65534   
     axis 180 30 90   XYZ
    dof rx
    limits (-10.0 170.0)
  end
  begin
     id 27 
     name rwrist
     direction -1 -4.48977e-011 1.14952e-026   
     length 1.32767   
     axis -6.29373e-015 -90 -90   XYZ
    dof ry
    limits (-180.0 0.0)
  end
  begin
     id 28
     name rhand
     direction -1 -4.48924e-011 2.29804e-026   
     length 0.594069   
     axis -1.46689e-014 -90 -90   XYZ
    dof rx rz
    limits (-90.0 90.0)
           (-45.0 45.0)
  end
  begin
     id 29
     name rfingers
     direction -1 -4.48998e-011 4.59888e-026   
     length 0.478954   
     axis -2.93383e-014 -90 -90   XYZ
    dof rx
    limits (0.0 90.0)
  end
  begin
     id 30
     name rthumb
     direction -0.707107 -6.34933e-011 0.707107   
     length 0.687685   
     axis -90 -45 -5.69224e-014   XYZ
    dof rx rz
    limits (-45.0 45.0)
           (-45.0 45.0)
  end
:hierarchy
  begin
    root lhipjoint rhipjoint lowerback
    lhipjoint lfemur
    lfemur ltibia
    ltibia lfoot
    lfoot ltoes
    rhipjoint rfemur
    rfemur rtibia
    rtibia rfoot
    rfoot rtoes
    lowerback upperback
    upperback thorax
    thorax lowerneck lclavicle rclavicle
    lowerneck upperneck
    upperneck head
    lclavicle lhumerus
    lhumerus lradius
    lradius lwrist
    lwrist lhand lthumb
    lhand lfingers
    rclavicle rhumerus
    rhumerus rradius
    rradius rwrist
    rwrist rhand rthumb
    rhand rfingers
  end

#!OML:ASF E:\pregnant2\Project 1\Capture day 1\Session 1\pregnant2.ASF
:FULLY-SPECIFIED
:DEGREES
109
root -4.59637 17.1123 6.19286 26.7182 -13.9981 0.0157915
lowerback -13.3168 -0.622273 0.647866
upperback -13.2042 -0.99977 0.696442
thorax -6.59252 -0.587749 0.30989
lowerneck -11.9216 1.94459 -0.261056
upperneck 49.1274 5.14072 -4.59199
head 23.0949 1.12304 -1.4878
rclavicle 3.19298e-014 -1.05356e-014
rhumerus -52.569 -3.00869 -73.1843
rradius 38.1287
rwrist 10.1755
rhand -11.493 -11.6681
rfingers 7.12502
rthumb 14.5455 -41.1381
lclavicle 3.19298e-014 -1.05356e-014
lhumerus -47.9615 -18.7395 91.3538
lradius 104.078
lwrist -16.3075
lhand -6.84664 18.332
lfingers 7.12502
lthumb 19.0183 47.4222
rfemur -55.5601 1.80474 20.3722
rtibia 60.619
rfoot -13.3189 -10.7899
rtoes -10.155
lfemur -42.9611 -1.29038 -28.493
ltibia 37.4654
lfoot -18.9238 16.3879
ltoes 8.2252
110
root -4.60222 17.1098 6.26959 26.7586 -14.0231 0.00662334
lowerback -13.2992 -0.626599 0.712138
upperback -13.1606 -1.00938 0.72601
thorax -6.55349 -0.59617 0.304153
lowerneck -11.9719 1.90021 -0.326824
upperneck 49.0103 5.07456 -4.5812
head 22.9917 1.08741 -1.47615
rclavicle -5.61567e-015 -2.72335e-014
rhumerus -52.5966 -2.97275 -73.1962
rradius 38.0368
rwrist 10.1791
rhand -11.4047 -11.5226
rfingers 7.12502
rthumb 14.6306 -40.9865
lclavicle -5.61567e-015 -2.72335e-014
lhumerus -48.2782 -17.9196 90.9863
lradius 102.244
lwrist -17.7886
lhand -5.98448 18.3982
lfingers 7.12502
lthumb 19.8473 47.4048
rfemur -56.0314 2.11296 20.3111
rtibia 59.3868
rfoot -13.5932 -10.9627
rtoes -10.1498
lfemur -42.6885 -1.21721 -28.5651
ltibia 37.4467
lfoot -19.205 16.4151
ltoes 8.10916
111
root -4.60878 17.1097 6.34685 26.8016 -14.0356 -0.000707195
lowerback -13.2824 -0.632763 0.776717
upperback -13.1236 -1.02148 0.75547
thorax -6.52149 -0.605881 0.298028
lowerneck -12.0216 1.8566 -0.386545
upperneck 48.8972 5.01188 -4.57753
head 22.8944 1.05348 -1.46922
rclavicle -2.08475e-014 -2.52457e-014
rhumerus -52.6382 -2.9435 -73.1906
rradius 37.9398
rwrist 10.1958
rhand -11.3055 -11.3858
rfingers 7.12502
rthumb 14.7262 -40.8427
lclavicle -2.08475e-014 -2.52457e-014
lhumerus -48.5552 -17.1446 90.6352
lradius 100.429
lwrist -19.0537
lhand -5.12191 18.5515
lfingers 7.12502
lthumb 20.6763 47.4701
rfemur -56.4498 2.42444 20.2236
rtibia 58.0426
rfoot -13.8287 -11.1797
rtoes -10.1074
lfemur -42.386 -1.13848 -28.6368
ltibia 37.363
lfoot -19.4525 16.4248
ltoes 7.97127
112
root -4.61612 17.1118 6.42455 26.8501 -14.0331 -0.006975
lowerback -13.2667 -0.639883 0.843434
upperback -13.096 -1.03508 0.783046
thorax -6.49973 -0.616651 0.28874
lowerneck -12.0687 1.81433 -0.438559
upperneck 48.7912 4.95102 -4.57655
head 22.8048 1.02146 -1.46537
rclavicle -9.0447e-015 -2.00773e-014
rhumerus -52.6956 -2.92477 -73.1693
rradius 37.8354
rwrist 10.218
rhand -11.2132 -11.2529
rfingers 7.12502
rthumb 14.8151 -40.7033
lclavicle -9.0447e-015 -2.00773e-014
lhumerus -48.8072 -16.4189 90.3108
lradius 98.6505
lwrist -20.0737
lhand -4.2808 18.8063
lfingers 7.12502
lthumb 21.4843 47.6349
rfemur -56.8218 2.73848 20.1086
rtibia 56.596
rfoot -14.0232 -11.4315
rtoes -10.0296
lfemur -42.0593 -1.05734 -28.7056
ltibia 37.2192
lfoot -19.6638 16.4181
ltoes 7.80501
113
root -4.62428 17.1157 6.50257 26.9039 -14.0176 -0.0161238
lowerback -13.2508 -0.648798 0.912547
upperback -13.077 -1.05121 0.81213
thorax -6.4878 -0.628857 0.27967
lowerneck -12.1141 1.77325 -0.488576
upperneck 48.6906 4.89175 -4.57467
head 22.7207 0.990554 -1.46139
rclavicle -1.13804e-014 -8.15017e-015
rhumerus -52.7727 -2.90154 -73.1395
rradius 37.7361
rwrist 10.2274
rhand -11.1485 -11.1343
rfingers 7.12502
rthumb 14.8774 -40.5802
lclavicle -1.13804e-014 -8.15017e-015
lhumerus -49.0411 -15.7368 90.0158
lradius 96.92
lwrist -20.8609
lhand -3.49414 19.1503
lfingers 7.12502
lthumb 22.2397 47.8907
rfemur -57.1483 3.05917 19.9662
rtibia 55.0554
rfoot -14.1826 -11.7104
rtoes -9.87738
lfemur -41.7118 -0.98281 -28.7631
ltibia 37.0233
lfoot -19.8437 16.4072
ltoes 7.6391
114
root -4.63334 17.121 6.5801 26.9709 -13.9723 -0.017213
lowerback -13.2359 -0.665497 0.976692
upperback -13.0711 -1.07729 0.839608
thorax -6.49015 -0.645859 0.271172
lowerneck -12.1566 1.73365 -0.529138
upperneck 48.5956 4.83324 -4.5747
head 22.6421 0.9616 -1.46049
rclavicle -1.18774e-014 1.78906e-015
rhumerus -52.8709 -2.88182 -73.0994
rradius 37.6406
rwrist 10.2279
rhand -11.104 -11.0175
rfingers 7.12502
rthumb 14.9203 -40.4601
lclavicle -1.18774e-014 1.78906e-015
lhumerus -49.2616 -15.102 89.7469
lradius 95.2379
lwrist -21.4678
lhand -2.74704 19.5484
lfingers 7.12502
lthumb 22.9567 48.2015
rfemur -57.4479 3.36997 19.7929
rtibia 53.4328
rfoot -14.2979 -12.0111
rtoes -9.69542
lfemur -41.36 -0.943357 -28.8081
ltibia 36.7816
lfoot -19.987 16.3988
ltoes 7.47897
115
root -4.64335 17.1275 6.65778 27.0426 -13.9016 -0.0143335
lowerback -13.221 -0.690778 1.03563
upperback -13.0752 -1.11416 0.871262
thorax -6.50365 -0.667755 0.269414
lowerneck -12.1966 1.69658 -0.570371
upperneck 48.506 4.77848 -4.57194
head 22.5682 0.934256 -1.45742
rclavicle -2.70099e-014 3.18055e-015
rhumerus -52.9858 -2.86177 -73.0446
rradius 37.5509
rwrist 10.2341
rhand -11.0788 -10.9374
rfingers 7.12502
rthumb 14.9446 -40.3782
lclavicle -2.70099e-014 3.18055e-015
lhumerus -49.4739 -14.4967 89.501
lradius 93.5979
lwrist -21.9736
lhand -2.04254 19.9452
lfingers 7.12502
lthumb 23.6326 48.5127
rfemur -57.7075 3.67156 19.5913
rtibia 51.7362
rfoot -14.3667 -12.3321
rtoes -9.45602
lfemur -40.9937 -0.947267 -28.8326
ltibia 36.5008
lfoot -20.104 16.4081
ltoes 7.31963
116
root -4.65434 17.1347 6.73566 27.1175 -13.8064 -0.00382863
lowerback -13.21 -0.720414 1.09008
upperback -13.0868 -1.1565 0.899934
thorax -6.52357 -0.692234 0.266712
lowerneck -12.2333 1.65805 -0.609789
upperneck 48.4212 4.71826 -4.56291
head 22.4973 0.906089 -1.45262
rclavicle -2.03257e-014 9.93923e-015
rhumerus -53.1211 -2.85534 -72.9727
rradius 37.464
rwrist 10.2307
rhand -11.0791 -10.8685
rfingers 7.12502
rthumb 14.9443 -40.3094
lclavicle -2.03257e-014 9.93923e-015
lhumerus -49.6719 -13.93 89.2716
lradius 91.9779
lwrist -22.46
lhand -1.38859 20.2942
lfingers 7.12502
lthumb 24.2597 48.7794
rfemur -57.9302 3.95154 19.366
rtibia 49.9757
rfoot -14.4032 -12.6669
rtoes -9.15911
lfemur -40.613 -0.989272 -28.8436
ltibia 36.1853
lfoot -20.1984 16.4291
ltoes 7.16268
117
root -4.66629 17.1424 6.81423 27.1881 -13.6913 0.0137519
lowerback -13.2034 -0.755843 1.13741
upperback -13.1014 -1.2059 0.929537
thorax -6.54436 -0.719658 0.268473
lowerneck -12.2686 1.61937 -0.650249
upperneck 48.341 4.65648 -4.54921
head 22.4301 0.877738 -1.44563
rclavicle 2.75814e-014 -1.72943e-014
rhumerus -53.2668 -2.86073 -72.8798
rradius 37.3762
rwrist 10.2347
rhand -11.0924 -10.8197
rfingers 7.12502
rthumb 14.9315 -40.2615
lclavicle 2.75814e-014 -1.72943e-014
lhumerus -49.8521 -13.3851 89.0495
lradius 90.3652
lwrist -23.0002
lhand -0.77722 20.5549
lfingers 7.12502
lthumb 24.8457 48.9605
rfemur -58.107 4.21231 19.1167
rtibia 48.1597
rfoot -14.4257 -13.0087
rtoes -8.76983
lfemur -40.2105 -1.052 -28.8475
ltibia 35.8377
lfoot -20.275 16.4501
ltoes 7.00687
118
root -4.6792 17.1506 6.89394 27.2552 -13.5647 0.033461
lowerback -13.2086 -0.789007 1.18464
upperback -13.1163 -1.25248 0.955537
thorax -6.55921 -0.745788 0.266485
lowerneck -12.3064 1.57799 -0.689666
upperneck 48.2677 4.587 -4.52745
head 22.3696 0.84771 -1.43639
rclavicle 5.1684e-015 -8.54774e-015
rhumerus -53.414 -2.89934 -72.7579
rradius 37.2709
rwrist 10.2513
rhand -11.1211 -10.7749
rfingers 7.12502
rthumb 14.9039 -40.2187
lclavicle 5.1684e-015 -8.54774e-015
lhumerus -50.005 -12.8678 88.8297
lradius 88.7373
lwrist -23.6288
lhand -0.199694 20.7071
lfingers 7.12502
lthumb 25.3991 49.0352
rfemur -58.24 4.45885 18.8484
rtibia 46.2969
rfoot -14.4423 -13.359
rtoes -8.33581
lfemur -39.7836 -1.12232 -28.8455
ltibia 35.4576
lfoot -20.3346 16.4678
ltoes 6.84424
119
root -4.69307 17.1595 6.97504 27.3111 -13.4323 0.0573461
lowerback -13.2226 -0.824744 1.22204
upperback -13.1276 -1.30171 0.984088
thorax -6.56495 -0.772261 0.272242
lowerneck -12.3474 1.53823 -0.726495
upperneck 48.1988 4.52027 -4.50612
head 22.3152 0.819139 -1.42758
rclavicle 4.56459e-014 2.46493e-014
rhumerus -53.5642 -2.94246 -72.614
rradius 37.1607
rwrist 10.2681
rhand -11.1493 -10.7312
rfingers 7.12502
rthumb 14.8766 -40.1771
lclavicle 4.56459e-014 2.46493e-014
lhumerus -50.1254 -12.3653 88.6086
lradius 87.0869
lwrist -24.3365
lhand 0.35777 20.7694
lfingers 7.12502
lthumb 25.933 49.0205
rfemur -58.324 4.70015 18.5549
rtibia 44.3958
rfoot -14.4674 -13.7207
rtoes -7.8728
lfemur -39.3225 -1.18629 -28.8455
ltibia 35.0422
lfoot -20.3799 16.4734
ltoes 6.6732
120
root -4.70799 17.1694 7.05738 27.3577 -13.293 0.0850315
lowerback -13.2464 -0.860805 1.24889
upperback -13.1385 -1.35055 1.01448
thorax -6.56476 -0.797544 0.285642
lowerneck -12.381 1.49894 -0.76447
upperneck 48.1354 4.4539 -4.4821
head 22.2631 0.790961 -1.41728
rclavicle -1.10822e-014 -3.20043e-014
rhumerus -53.7154 -3.00234 -72.4409
rradius 37.0354
rwrist 10.2977
rhand -11.184 -10.688
rfingers 7.12502
rthumb 14.8433 -40.1363
lclavicle -1.10822e-014 -3.20043e-014
lhumerus -50.2176 -11.8819 88.3932
lradius 85.4173
lwrist -25.0816
lhand 0.89042 20.7666
lfingers 7.12502
lthumb 26.443 48.9421
rfemur -58.3669 4.94595 18.2309
rtibia 42.4688
rfoot -14.5032 -14.0999
rtoes -7.4464
lfemur -38.8278 -1.23693 -28.8491
ltibia 34.586
lfoot -20.4042 16.459
ltoes 6.48841
